<svg t="1603443200833" class="icon" viewBox="0 0 1024 1024" version="1.1" xmlns="http://www.w3.org/2000/svg" p-id="1083" width="32" height="32"><path d="M842.798545 822.690909v63.767273a44.357818 44.357818 0 0 1-44.450909 44.450909H225.652364a44.404364 44.404364 0 0 1-44.497455-44.404364V418.117818l-21.271273 14.894546a42.635636 42.635636 0 0 1-59.159272-10.193455 42.449455 42.449455 0 0 1 10.565818-59.112727l375.621818-262.888727A42.682182 42.682182 0 0 1 512 93.090909a42.682182 42.682182 0 0 1 25.134545 7.726546l375.528728 262.935272a42.449455 42.449455 0 0 1 10.705454 59.112728 42.635636 42.635636 0 0 1-59.252363 10.193454l-21.317819-14.941091v292.305455H689.803636v-58.181818c0-5.771636-3.723636-7.726545-8.471272-4.51491l-165.794909 113.012364c-4.701091 3.258182-4.701091 8.378182 0 11.636364l165.794909 113.012363c4.701091 3.165091 8.471273 1.210182 8.471272-4.514909v-58.135272h153.041455v-0.046546zM301.428364 445.858909c-5.585455 0.930909-10.053818 5.352727-9.960728 9.960727v40.215273c0 5.259636 5.911273 9.914182 12.241455 9.960727h96.628364c6.283636-0.093091 12.194909-4.701091 12.241454-10.007272v-40.168728c0-5.213091-5.911273-9.960727-12.194909-9.960727H303.709091a7.633455 7.633455 0 0 0-2.327273 0z m0 99.281455c-5.585455 0.884364-10.053818 5.306182-9.960728 9.960727v40.168727c0 5.259636 5.911273 9.960727 12.241455 9.960727h96.628364c6.283636-0.139636 12.194909-4.747636 12.241454-9.960727v-40.168727c0-5.259636-5.911273-9.960727-12.194909-9.960727H303.709091a7.633455 7.633455 0 0 0-2.327273 0z m154.391272 0c-5.538909 0.884364-10.053818 5.306182-10.007272 9.960727v40.168727c0 5.259636 5.957818 9.960727 12.288 9.960727h96.581818c6.283636-0.139636 12.194909-4.747636 12.288-9.960727v-40.168727c0-5.259636-5.957818-9.960727-12.241455-9.960727H458.100364a7.633455 7.633455 0 0 0-2.280728 0z m-154.391272 99.234909c-5.585455 0.930909-10.053818 5.306182-9.960728 9.960727v40.168727c0 5.259636 5.911273 9.960727 12.241455 9.960728h96.628364c6.283636-0.093091 12.194909-4.701091 12.241454-10.007273v-40.168727c0-5.213091-5.911273-9.914182-12.194909-9.914182H303.709091a7.633455 7.633455 0 0 0-2.327273 0z m154.391272 0c-5.538909 0.930909-10.053818 5.306182-10.007272 9.960727v40.168727c0 5.259636 5.957818 9.960727 12.288 9.960728h96.581818c6.283636-0.093091 12.194909-4.701091 12.288-10.007273v-40.168727c0-5.213091-5.957818-9.914182-12.241455-9.914182H458.100364a7.633455 7.633455 0 0 0-2.280728 0z" p-id="1084" fill="#fff"></path></svg>
