<svg t="1603443741508" class="icon" viewBox="0 0 1024 1024" version="1.1" xmlns="http://www.w3.org/2000/svg" p-id="8509" width="32" height="32"><path d="M512 38.4c-199.62368 0-414.40256 60.17536-414.40256 192.39936v562.40128c0 132.16256 214.77888 192.39936 414.40256 192.39936 199.58784 0 414.40256-60.2368 414.40256-192.39936V230.79936C926.40256 98.57536 711.56736 38.4 512 38.4z m355.2 754.80064c0 73.52832-159.04256 133.20192-355.2 133.20192-196.18816 0-355.2-59.66848-355.2-133.20192v-110.58688c61.15328 63.01696 208.68096 95.78496 355.2 95.78496s294.05184-32.768 355.2-95.78496v110.58688z m0-177.60256h-0.11776c0 0.29696 0.11776 0.61952 0.11776 0.91648 0 73.08288-159.04256 132.28544-355.2 132.28544s-355.2-59.20256-355.2-132.28544c0-0.29696 0.11776-0.61952 0.11776-0.91648h-0.11776V505.01632c61.15328 63.01696 208.68096 95.78496 355.2 95.78496s294.05184-32.768 355.2-95.78496v110.58176z m0-177.59744h-0.11776c0 0.29696 0.11776 0.62464 0.11776 0.91648 0 73.08288-159.04256 132.28032-355.2 132.28032S156.8 512 156.8 438.91712c0-0.29696 0.11776-0.62464 0.11776-0.91648h-0.11776V336.29696C234.38336 395.40736 376.58112 423.19872 512 423.19872s277.62176-27.79648 355.2-86.90688v101.7088zM512 364.00128c-196.18816 0-355.2-59.6736-355.2-133.20192 0-73.58464 159.01184-133.20192 355.2-133.20192 196.16256 0 355.2 59.61728 355.2 133.20192 0 73.5232-159.03744 133.20192-355.2 133.20192z" fill="#ffffff" p-id="8510"></path><path d="M748.8 808.00256a29.60384 29.60384 0 0 0 59.19744 0 29.60384 29.60384 0 0 0-59.19744 0zM748.8 630.4a29.60384 29.60384 0 0 0 59.19744 0 29.60384 29.60384 0 0 0-59.19744 0zM748.8 452.80256a29.59872 29.59872 0 1 0 59.20256 0 29.59872 29.59872 0 0 0-59.20256 0z" fill="#ffffff" p-id="8511"></path></svg>
