<svg t="1603443606142" class="icon" viewBox="0 0 1024 1024" version="1.1" xmlns="http://www.w3.org/2000/svg" p-id="4975" width="32" height="32"><path d="M16.7936 669.952h140.9536v346.624H16.7936zM1009.0496 44.4416a37.0176 37.0176 0 0 0-37.0176-37.0176h-157.8496a37.0176 37.0176 0 0 0 0 74.0352h71.8848l-347.392 297.0112-162.4064-153.3952L28.4672 509.6448a37.12 37.12 0 0 0 46.9504 57.2928l297.472-243.2512 163.4304 154.2656 398.7456-341.0432v66.7136a37.0176 37.0176 0 0 0 74.0352 0V45.7728c0-0.256-0.1536-0.4096-0.1536-0.6656l0.1024-0.6656zM867.84 321.8944h140.9536v694.2208H867.84zM655.0528 472.32h140.9536v543.9488h-140.9536zM442.3168 600.2176h140.9536v415.744H442.3168z" p-id="4976" fill="#ffffff"></path><path d="M226.7136 532.5824h140.9536v483.2768H226.7136z" p-id="4977" fill="#ffffff"></path></svg>
