<svg t="1603443408701" class="icon" viewBox="0 0 1024 1024" version="1.1" xmlns="http://www.w3.org/2000/svg" p-id="2590" width="32" height="32"><path d="M820 299.7l-1.3-1.3-128.3-124.9c-0.7 0-81.2-78.5-81.9-79.2-1.3-1.3-3.4-3.4-5.4-4.7-1.3-1.3-2.7-2-4.7-3.4-2.7-1.3-8.1-4-13.4-4H172.4c-22.1 0-40.9 16.1-45.6 36.9-0.7 2.7-0.7 6-0.7 9.4v765.6c0 22.1 16.1 40.9 36.9 45 2.7 0.7 6 0.7 9.4 0.7h359v-45H171.8V128.6H565V303c0 22.1 16.1 40.9 36.9 45.6 2.7 0.7 8.7 0.7 8.7 0.7h173.8v177.1h46.3v-202c0.7-7.9-3.4-17.3-10.7-24.7zM611.3 303V161.5L759.6 303H611.3z" fill="#ffffff" p-id="2591"></path><path d="M448.2 724.4h-2l-77.8-2h-87.9c-12.7 0-22.8 10.1-22.8 22.8 0 10.7 7.4 19.5 17.4 22.1 0.7 0 1.3 0 2 0.7H367l81.2 2h2.7c11.4-1.3 20.1-10.7 20.1-22.8 0-12.7-10-22.8-22.8-22.8zM447.5 591.6h-167c-12.7 0-22.8 10.1-22.8 22.8 0 10.7 7.4 19.5 17.4 22.1 0.7 0 1.3 0 2 0.7h171.1c12.7 0 22.8-10.1 22.8-22.8 0-12.8-10.7-22.8-23.5-22.8zM675 460.1h-2l-393.2 0.7h-0.7c-12.7 0-22.8 10.1-22.8 22.8 0 12.7 10.1 22.8 22.8 22.8h394.6c1.3 0 3.4 0 4.7-0.7 10.7-2 19.5-11.4 19.5-22.8-0.1-12.8-10.1-22.8-22.9-22.8z" fill="#ffffff" p-id="2592"></path><path d="M573.9 789H669c-36.8 136 25.4 143 25.4 143 26.4 0 20.9-20.9 22.9-24.3C717.3 841.2 788 789 788 789V600.3c0-18.6-25.4-25.3-35.3-25.3h-143c-13.4 0-24.4 35.3-24.4 35.3C550 730.4 550 766.2 550 766.2c0 24.8 23.9 22.8 23.9 22.8z m0 0M826.9 788.9h56.9c11.8 0 11.9-11.5 11.9-11.5L884 587.1c0-12.1-12.1-12.1-12.1-12.1h-49.3c-10.3 0-10.2 8-10.2 8v191.5c0 14.6 14.5 14.4 14.5 14.4z m0 0" fill="#ffffff" p-id="2593"></path></svg>
