<svg t="1603443500752" class="icon" viewBox="0 0 1084 1024" version="1.1" xmlns="http://www.w3.org/2000/svg" p-id="3349" width="32" height="32"><path d="M979.305412 815.344941c-11.264 30.72-33.852235 55.175529-63.548236 68.969412a121.795765 121.795765 0 0 1-93.665882 3.794823 121.735529 121.735529 0 0 1-68.969412-63.548235 121.795765 121.795765 0 0 1-3.855058-93.726117 121.675294 121.675294 0 0 1 63.60847-68.969412 122.699294 122.699294 0 0 1 166.490353 153.419294m59.994353-123.181177a191.668706 191.668706 0 0 0-66.620235-78.486588c1.325176-13.552941 2.108235-30.117647 2.108235-45.598117a431.887059 431.887059 0 0 0-125.952-305.272471 35.177412 35.177412 0 1 0-49.874824 49.573647 360.508235 360.508235 0 0 1 105.170824 272.143059 191.849412 191.849412 0 0 0-120.892235 13.552941 191.548235 191.548235 0 0 0-99.990589 108.544 191.548235 191.548235 0 0 0 6.02353 147.516235c21.564235 46.742588 60.114824 82.281412 108.483765 99.990589a192.271059 192.271059 0 0 0 147.516235-6.02353 191.548235 191.548235 0 0 0 99.990588-108.423529 191.548235 191.548235 0 0 0-6.023529-147.576471m-794.925177 210.82353a122.699294 122.699294 0 0 1-166.430117-153.6c11.324235-30.72 33.912471-55.175529 63.60847-68.909177a122.157176 122.157176 0 0 1 162.635294 59.813647 122.699294 122.699294 0 0 1-59.813647 162.635294m394.179765 32.406588a365.748706 365.748706 0 0 1-101.616941 14.336h-0.120471a363.218824 363.218824 0 0 1-184.199529-49.874823 192.933647 192.933647 0 0 0-93.123765-289.129412 191.548235 191.548235 0 0 0-147.456 6.02353 191.608471 191.608471 0 0 0-100.111059 108.423529 191.608471 191.608471 0 0 0 6.02353 147.576471 193.114353 193.114353 0 0 0 283.708235 78.305882 433.212235 433.212235 0 0 0 235.158588 68.969412h0.120471c41.140706 0 81.92-5.722353 121.133176-17.046589a35.177412 35.177412 0 1 0-19.516235-67.584M431.706353 150.588235c11.264-30.72 33.852235-55.175529 63.548235-68.909176a122.699294 122.699294 0 0 1 166.490353 153.479529c-11.264 30.72-33.852235 55.175529-63.548235 68.909177a121.675294 121.675294 0 0 1-93.726118 3.794823A121.735529 121.735529 0 0 1 435.501176 244.314353 121.735529 121.735529 0 0 1 431.706353 150.588235m-290.334118 393.758118a35.237647 35.237647 0 0 0 41.140706-28.009412 362.616471 362.616471 0 0 1 75.294118-161.129412 366.832941 366.832941 0 0 1 109.869176-90.593882 191.548235 191.548235 0 0 0 112.51953 109.266824 192.271059 192.271059 0 0 0 147.516235-6.02353 191.548235 191.548235 0 0 0 100.050824-108.483765 191.548235 191.548235 0 0 0-6.02353-147.516235A193.054118 193.054118 0 0 0 465.739294 17.829647a191.548235 191.548235 0 0 0-99.990588 108.544c-8.011294 21.684706-11.986824 44.092235-11.986824 66.439529a437.368471 437.368471 0 0 0-150.347294 117.880471 433.212235 433.212235 0 0 0-89.991529 192.512 35.177412 35.177412 0 0 0 28.009412 41.140706" p-id="3350" fill="#ffffff"></path></svg>
