<svg t="1603443563342" class="icon" viewBox="0 0 1024 1024" version="1.1" xmlns="http://www.w3.org/2000/svg" p-id="4193" width="32" height="32"><path d="M936.6368 350.48533333v-65.82186666c0-56.53333333-44.832-119.76853333-104.83413333-119.76853334H529.52533333l-12.45866666-23.51893333c-12.46506667-23.84213333-36.896-38.64426667-63.79413334-38.64426667H130.74133333c-53.79946667 0-97.54346667 44.98026667-97.54346666 100.27733334v613.90933333c0 55.26933333 43.744 100.23466667 97.54346666 100.23466667h758.976c53.7984 0 97.54346667-44.96533333 97.54346667-100.23466667V440.12266667c-0.00106667-32.67626667-21.60213333-67.25866667-50.62506667-89.63626667z m-104.83413333-125.3824c20.84373333 0 44.6272 31.73546667 44.6272 59.56053334v41.64266666c-1.01973333-0.04053333-2.0416-0.1024-3.05706667-0.1024H614.98986667l-53.5648-101.1008h270.37866666z m95.25013333 591.81653334c0 22.06293333-16.75733333 40.0256-37.33546667 40.0256H130.74133333c-20.57706667 0-37.33546667-17.96266667-37.33546666-40.0256v-613.90933334c0-22.09386667 16.75733333-40.0704 37.33653333-40.0704h322.528c4.41066667 0 8.40853333 2.4256 10.52586667 6.48213334l106.48106666 200.98133333a30.13546667 30.13546667 0 0 0 26.6048 16.00746667h276.49066667c21.57866667 0 53.68106667 32.13226667 53.68106667 53.71093333v376.79786667z" fill="#ffffff" p-id="4194"></path></svg>
