<svg t="1603443661041" class="icon" viewBox="0 0 1211 1024" version="1.1" xmlns="http://www.w3.org/2000/svg" p-id="5788" width="32" height="32"><path d="M915.118987 944.931646h-324.050633v-107.584811h60.921519c14.258228 0 25.924051-11.665823 25.924051-25.92405s-11.665823-25.924051-25.924051-25.924051H181.468354c-71.291139 0-129.620253-58.329114-129.620253-129.620253V181.468354C51.848101 110.177215 110.177215 51.848101 181.468354 51.848101h764.759494c67.402532 0 124.435443 51.848101 129.620253 119.250633V207.392405c0 14.258228 11.665823 25.924051 25.924051 25.924051s25.924051-11.665823 25.924051-25.924051v-40.182278C1119.918987 73.883544 1040.850633 0 946.227848 0H181.468354C81.660759 0 0 81.660759 0 181.468354v474.410127c0 99.807595 81.660759 181.468354 181.468354 181.468354h355.159494v107.584811h-337.012658c-14.258228 0-25.924051 11.665823-25.924051 25.92405v1.296203c0 14.258228 11.665823 25.924051 25.924051 25.92405h715.503797c14.258228 0 25.924051-11.665823 25.924051-25.92405v-1.296203c0-14.258228-11.665823-25.924051-25.924051-25.92405z" p-id="5789" fill="#ffffff"></path><path d="M1197.691139 458.855696l-66.106329-15.55443c-1.296203-3.888608-3.888608-9.073418-5.18481-12.962025l33.701266-57.032912-2.592405-23.331645-68.698734-69.994937-24.627849-2.592405-63.513924 38.886076-14.258227-62.217722-19.443038-15.55443h-97.21519l-19.443038 15.55443-14.258228 59.625317-66.106329-40.182279-23.331646 2.592405-69.994936 69.994937-2.592406 24.627848 38.886076 63.513924c0 1.296203-1.296203 2.592405-1.296202 3.888608l-81.66076 19.443038-14.258227 19.443038v98.511392l14.258227 19.443038 77.772152 19.443038c1.296203 2.592405 1.296203 3.888608 2.592405 6.481013L674.025316 681.802532l2.592406 23.331645 68.698734 68.698734 23.331645 2.592405 59.625317-36.29367 19.443038 80.364557 19.443038 14.258227h98.511392l19.443038-14.258227 19.443038-77.772152c1.296203 0 2.592405-1.296203 3.888608-1.296203l58.329114 34.997468 24.627848-2.592405 67.402531-68.698734 2.592405-23.331645-33.701265-54.440507c2.592405-5.18481 5.18481-11.665823 6.481012-16.850633l62.217722-15.55443 14.258228-19.443038v-98.511392l-12.962026-18.146836z m-24.627848 102.4L1114.734177 575.513924l-14.258228 12.962025c-3.888608 10.36962-7.777215 20.739241-12.962025 31.108861v19.443038l31.108861 50.551899-46.663291 46.663291-53.144304-32.405063-18.146836-1.296203-19.443038 7.777215-12.962025 14.258228-18.146835 72.587342H881.417722l-18.146836-76.475949-11.665823-12.962026c-5.18481-2.592405-10.36962-3.888608-15.55443-6.481012l-18.146836 1.296202-55.736708 34.997469-47.959494-47.959494 34.997468-55.736709 1.296203-18.146835c-3.888608-6.481013-6.481013-14.258228-9.073418-22.035444l-14.258228-12.962025-72.587342-18.146835V492.556962l76.47595-18.146835 12.962025-11.665823c2.592405-6.481013 5.18481-12.962025 9.073418-19.443038l-1.296203-19.443038-36.293671-59.625317 47.959494-47.959493 64.810127 40.182278 18.146835 1.296203 11.665823-3.888608h1.296202l12.962026-14.258228 14.258228-58.329114h66.106329l12.962025 57.032912 12.962025 14.258228c6.481013 1.296203 11.665823 3.888608 16.850633 6.481012l18.146836-1.296202 59.625316-36.293671 47.959494 47.959494-32.405063 53.144303v19.443038c5.18481 9.073418 9.073418 18.146835 11.665822 27.220253l14.258228 12.962026 60.921519 14.258228v64.810126z" p-id="5790" fill="#ffffff"></path><path d="M913.822785 414.78481c-68.698734 0-123.139241 55.736709-123.139241 123.139241 0 68.698734 55.736709 123.139241 123.139241 123.13924 68.698734 0 123.139241-55.736709 123.13924-123.13924 1.296203-68.698734-54.440506-123.139241-123.13924-123.139241z m0 207.392405c-46.663291 0-84.253165-37.589873-84.253165-84.253164s37.589873-84.253165 84.253165-84.253165 84.253165 37.589873 84.253164 84.253165c1.296203 46.663291-37.589873 84.253165-84.253164 84.253164z" p-id="5791" fill="#ffffff"></path></svg>
